<mxfile host="Electron" modified="2024-03-28T16:43:24.430Z" agent="Mozilla/5.0 (Windows NT 10.0; Win64; x64) AppleWebKit/537.36 (KHTML, like Gecko) draw.io/24.1.0 Chrome/120.0.6099.109 Electron/28.1.0 Safari/537.36" etag="ofsCKHIVDLtbBnvqyi2B" version="24.1.0" type="device">
  <diagram name="Página-1" id="p1j_nVyqz9oo21acSPJA">
    <mxGraphModel dx="1420" dy="830" grid="1" gridSize="10" guides="1" tooltips="1" connect="1" arrows="1" fold="1" page="1" pageScale="1" pageWidth="827" pageHeight="1169" background="#CCE5FF" math="0" shadow="0">
      <root>
        <mxCell id="0" />
        <mxCell id="1" parent="0" />
        <mxCell id="mZdrg3EECxi1FjpRIrMy-1" value="&lt;p style=&quot;line-height: 85%;&quot;&gt;&lt;b style=&quot;font-size: 16px;&quot;&gt;&lt;font color=&quot;#000000&quot; face=&quot;Comic Sans MS&quot;&gt;1 Hacer un programa para ingresar por teclado un número y luego emitir por&lt;br&gt;&lt;br&gt;pantalla un cartel aclaratorio indicando si el mismo es positivo, negativo o cero.&lt;br&gt;&lt;br&gt;Importante: Verifique que el programa emita UN SOLO CARTEL.&lt;/font&gt;&lt;/b&gt;&lt;/p&gt;" style="text;whiteSpace=wrap;html=1;fontFamily=Architects Daughter;fontSource=https%3A%2F%2Ffonts.googleapis.com%2Fcss%3Ffamily%3DArchitects%2BDaughter;" vertex="1" parent="1">
          <mxGeometry x="80" y="10" width="610" height="140" as="geometry" />
        </mxCell>
        <mxCell id="mZdrg3EECxi1FjpRIrMy-54" value="" style="group" vertex="1" connectable="0" parent="1">
          <mxGeometry x="148.75" y="170" width="521.25" height="540" as="geometry" />
        </mxCell>
        <mxCell id="mZdrg3EECxi1FjpRIrMy-2" value="" style="strokeWidth=2;html=1;shape=mxgraph.flowchart.start_2;whiteSpace=wrap;rounded=0;labelBackgroundColor=none;strokeColor=#000000;align=center;verticalAlign=middle;fontFamily=Helvetica;fontSize=12;fontColor=default;fillColor=#d5e8d4;aspect=fixed;" vertex="1" parent="mZdrg3EECxi1FjpRIrMy-54">
          <mxGeometry x="181.25" width="40" height="40" as="geometry" />
        </mxCell>
        <mxCell id="mZdrg3EECxi1FjpRIrMy-4" value="" style="shape=trapezoid;perimeter=trapezoidPerimeter;whiteSpace=wrap;html=1;fixedSize=1;rounded=0;labelBackgroundColor=none;strokeColor=#121211;strokeWidth=2;align=center;verticalAlign=middle;fontFamily=Helvetica;fontSize=12;fontColor=default;fillColor=#d5e8d4;direction=west;container=1;aspect=fixed;" vertex="1" parent="mZdrg3EECxi1FjpRIrMy-54">
          <mxGeometry x="140" y="60" width="122.5" height="40" as="geometry">
            <mxRectangle x="-1020" y="-650" width="50" height="40" as="alternateBounds" />
          </mxGeometry>
        </mxCell>
        <mxCell id="mZdrg3EECxi1FjpRIrMy-9" value="&lt;b&gt;&lt;font face=&quot;Comic Sans MS&quot; color=&quot;#000000&quot; style=&quot;font-size: 16px;&quot;&gt;num&lt;/font&gt;&lt;/b&gt;" style="text;strokeColor=none;align=center;fillColor=none;html=1;verticalAlign=middle;whiteSpace=wrap;rounded=0;fontFamily=Architects Daughter;fontSource=https%3A%2F%2Ffonts.googleapis.com%2Fcss%3Ffamily%3DArchitects%2BDaughter;aspect=fixed;" vertex="1" parent="mZdrg3EECxi1FjpRIrMy-4">
          <mxGeometry x="15.75" width="91" height="40" as="geometry" />
        </mxCell>
        <mxCell id="mZdrg3EECxi1FjpRIrMy-6" value="&lt;b style=&quot;&quot;&gt;&lt;font style=&quot;font-size: 18px;&quot; color=&quot;#000000&quot;&gt;I&lt;/font&gt;&lt;/b&gt;" style="text;strokeColor=none;align=center;fillColor=none;html=1;verticalAlign=middle;whiteSpace=wrap;rounded=0;fontFamily=Architects Daughter;fontSource=https%3A%2F%2Ffonts.googleapis.com%2Fcss%3Ffamily%3DArchitects%2BDaughter;aspect=fixed;" vertex="1" parent="mZdrg3EECxi1FjpRIrMy-54">
          <mxGeometry x="171.25" y="5" width="60" height="30" as="geometry" />
        </mxCell>
        <mxCell id="mZdrg3EECxi1FjpRIrMy-8" value="" style="group;aspect=fixed;" vertex="1" connectable="0" parent="mZdrg3EECxi1FjpRIrMy-54">
          <mxGeometry x="171.25" y="500" width="60" height="40" as="geometry" />
        </mxCell>
        <mxCell id="mZdrg3EECxi1FjpRIrMy-3" value="" style="strokeWidth=2;html=1;shape=mxgraph.flowchart.start_2;whiteSpace=wrap;rounded=0;labelBackgroundColor=none;strokeColor=#000000;align=center;verticalAlign=middle;fontFamily=Helvetica;fontSize=12;fontColor=default;fillColor=#d5e8d4;aspect=fixed;" vertex="1" parent="mZdrg3EECxi1FjpRIrMy-8">
          <mxGeometry x="10" width="40" height="40" as="geometry" />
        </mxCell>
        <mxCell id="mZdrg3EECxi1FjpRIrMy-7" value="&lt;b&gt;&lt;font color=&quot;#000000&quot; style=&quot;font-size: 16px;&quot;&gt;F&lt;/font&gt;&lt;/b&gt;" style="text;strokeColor=none;align=center;fillColor=none;html=1;verticalAlign=middle;whiteSpace=wrap;rounded=0;fontFamily=Architects Daughter;fontSource=https%3A%2F%2Ffonts.googleapis.com%2Fcss%3Ffamily%3DArchitects%2BDaughter;aspect=fixed;" vertex="1" parent="mZdrg3EECxi1FjpRIrMy-8">
          <mxGeometry y="5" width="60" height="30" as="geometry" />
        </mxCell>
        <mxCell id="mZdrg3EECxi1FjpRIrMy-10" value="" style="rhombus;whiteSpace=wrap;html=1;rounded=0;labelBackgroundColor=none;strokeColor=#0F140C;strokeWidth=2;align=center;verticalAlign=middle;fontFamily=Helvetica;fontSize=12;fontColor=default;fillColor=#d5e8d4;aspect=fixed;" vertex="1" parent="mZdrg3EECxi1FjpRIrMy-54">
          <mxGeometry x="141.25" y="130" width="120" height="110" as="geometry" />
        </mxCell>
        <mxCell id="mZdrg3EECxi1FjpRIrMy-11" value="&lt;b&gt;&lt;font face=&quot;Comic Sans MS&quot; color=&quot;#000000&quot; style=&quot;font-size: 14px;&quot;&gt;num &amp;gt; 0&lt;/font&gt;&lt;/b&gt;" style="text;strokeColor=none;align=center;fillColor=none;html=1;verticalAlign=middle;whiteSpace=wrap;rounded=0;fontFamily=Architects Daughter;fontSource=https%3A%2F%2Ffonts.googleapis.com%2Fcss%3Ffamily%3DArchitects%2BDaughter;aspect=fixed;" vertex="1" parent="mZdrg3EECxi1FjpRIrMy-54">
          <mxGeometry x="161.25" y="155" width="80" height="60" as="geometry" />
        </mxCell>
        <mxCell id="mZdrg3EECxi1FjpRIrMy-15" value="" style="group;aspect=fixed;" vertex="1" connectable="0" parent="mZdrg3EECxi1FjpRIrMy-54">
          <mxGeometry x="291.25" y="240" width="110" height="100" as="geometry" />
        </mxCell>
        <mxCell id="mZdrg3EECxi1FjpRIrMy-13" value="" style="rhombus;whiteSpace=wrap;html=1;rounded=0;labelBackgroundColor=none;strokeColor=#0F140C;strokeWidth=2;align=center;verticalAlign=middle;fontFamily=Helvetica;fontSize=12;fontColor=default;fillColor=#d5e8d4;aspect=fixed;" vertex="1" parent="mZdrg3EECxi1FjpRIrMy-15">
          <mxGeometry width="110" height="100" as="geometry" />
        </mxCell>
        <mxCell id="mZdrg3EECxi1FjpRIrMy-14" value="&lt;b&gt;&lt;font face=&quot;Comic Sans MS&quot; color=&quot;#000000&quot; style=&quot;font-size: 14px;&quot;&gt;num == 0&lt;/font&gt;&lt;/b&gt;" style="text;strokeColor=none;align=center;fillColor=none;html=1;verticalAlign=middle;whiteSpace=wrap;rounded=0;fontFamily=Architects Daughter;fontSource=https%3A%2F%2Ffonts.googleapis.com%2Fcss%3Ffamily%3DArchitects%2BDaughter;aspect=fixed;" vertex="1" parent="mZdrg3EECxi1FjpRIrMy-15">
          <mxGeometry x="20" y="15" width="70" height="70" as="geometry" />
        </mxCell>
        <mxCell id="mZdrg3EECxi1FjpRIrMy-19" value="" style="group;aspect=fixed;" vertex="1" connectable="0" parent="mZdrg3EECxi1FjpRIrMy-54">
          <mxGeometry y="230" width="140" height="50" as="geometry" />
        </mxCell>
        <mxCell id="mZdrg3EECxi1FjpRIrMy-5" value="" style="shape=trapezoid;perimeter=trapezoidPerimeter;whiteSpace=wrap;html=1;fixedSize=1;rounded=0;labelBackgroundColor=none;strokeColor=#0F140C;strokeWidth=2;align=center;verticalAlign=middle;fontFamily=Helvetica;fontSize=12;fontColor=default;fillColor=#d5e8d4;aspect=fixed;" vertex="1" parent="mZdrg3EECxi1FjpRIrMy-19">
          <mxGeometry x="14" y="5" width="112" height="40" as="geometry" />
        </mxCell>
        <mxCell id="mZdrg3EECxi1FjpRIrMy-17" value="&lt;font size=&quot;1&quot; face=&quot;Comic Sans MS&quot; color=&quot;#000000&quot;&gt;&lt;b style=&quot;font-size: 15px;&quot;&gt;positivo&lt;/b&gt;&lt;/font&gt;" style="text;strokeColor=none;align=center;fillColor=none;html=1;verticalAlign=middle;whiteSpace=wrap;rounded=0;fontFamily=Architects Daughter;fontSource=https%3A%2F%2Ffonts.googleapis.com%2Fcss%3Ffamily%3DArchitects%2BDaughter;aspect=fixed;" vertex="1" parent="mZdrg3EECxi1FjpRIrMy-19">
          <mxGeometry width="140" height="50" as="geometry" />
        </mxCell>
        <mxCell id="mZdrg3EECxi1FjpRIrMy-27" value="" style="group;aspect=fixed;" vertex="1" connectable="0" parent="mZdrg3EECxi1FjpRIrMy-54">
          <mxGeometry x="181.25" y="330" width="110" height="40" as="geometry" />
        </mxCell>
        <mxCell id="mZdrg3EECxi1FjpRIrMy-25" value="" style="shape=trapezoid;perimeter=trapezoidPerimeter;whiteSpace=wrap;html=1;fixedSize=1;rounded=0;labelBackgroundColor=none;strokeColor=#0F140C;strokeWidth=2;align=center;verticalAlign=middle;fontFamily=Helvetica;fontSize=12;fontColor=default;fillColor=#d5e8d4;aspect=fixed;" vertex="1" parent="mZdrg3EECxi1FjpRIrMy-27">
          <mxGeometry width="110" height="40" as="geometry" />
        </mxCell>
        <mxCell id="mZdrg3EECxi1FjpRIrMy-26" value="&lt;b&gt;&lt;font face=&quot;Comic Sans MS&quot; style=&quot;font-size: 15px;&quot; color=&quot;#000000&quot;&gt;cero&lt;/font&gt;&lt;/b&gt;" style="text;strokeColor=none;align=center;fillColor=none;html=1;verticalAlign=middle;whiteSpace=wrap;rounded=0;fontFamily=Architects Daughter;fontSource=https%3A%2F%2Ffonts.googleapis.com%2Fcss%3Ffamily%3DArchitects%2BDaughter;aspect=fixed;" vertex="1" parent="mZdrg3EECxi1FjpRIrMy-27">
          <mxGeometry x="25" y="5" width="60" height="30" as="geometry" />
        </mxCell>
        <mxCell id="mZdrg3EECxi1FjpRIrMy-31" value="" style="group;aspect=fixed;" vertex="1" connectable="0" parent="mZdrg3EECxi1FjpRIrMy-54">
          <mxGeometry x="401.25" y="330" width="120" height="40" as="geometry" />
        </mxCell>
        <mxCell id="mZdrg3EECxi1FjpRIrMy-29" value="" style="shape=trapezoid;perimeter=trapezoidPerimeter;whiteSpace=wrap;html=1;fixedSize=1;rounded=0;labelBackgroundColor=none;strokeColor=#0F140C;strokeWidth=2;align=center;verticalAlign=middle;fontFamily=Helvetica;fontSize=12;fontColor=default;fillColor=#d5e8d4;aspect=fixed;" vertex="1" parent="mZdrg3EECxi1FjpRIrMy-31">
          <mxGeometry width="120" height="40" as="geometry" />
        </mxCell>
        <mxCell id="mZdrg3EECxi1FjpRIrMy-30" value="&lt;b&gt;&lt;font face=&quot;Comic Sans MS&quot; color=&quot;#000000&quot; style=&quot;font-size: 15px;&quot;&gt;negativo&lt;/font&gt;&lt;/b&gt;" style="text;strokeColor=none;align=center;fillColor=none;html=1;verticalAlign=middle;whiteSpace=wrap;rounded=0;fontFamily=Architects Daughter;fontSource=https%3A%2F%2Ffonts.googleapis.com%2Fcss%3Ffamily%3DArchitects%2BDaughter;aspect=fixed;" vertex="1" parent="mZdrg3EECxi1FjpRIrMy-31">
          <mxGeometry x="30" y="5" width="60" height="30" as="geometry" />
        </mxCell>
        <mxCell id="mZdrg3EECxi1FjpRIrMy-33" value="" style="line;strokeWidth=2;direction=south;html=1;hachureGap=4;fontFamily=Architects Daughter;fontSource=https%3A%2F%2Ffonts.googleapis.com%2Fcss%3Ffamily%3DArchitects%2BDaughter;strokeColor=#000000;aspect=fixed;" vertex="1" parent="mZdrg3EECxi1FjpRIrMy-54">
          <mxGeometry x="196.25" y="100" width="10" height="30" as="geometry" />
        </mxCell>
        <mxCell id="mZdrg3EECxi1FjpRIrMy-34" value="" style="line;strokeWidth=2;html=1;perimeter=backbonePerimeter;points=[];outlineConnect=0;hachureGap=4;fontFamily=Architects Daughter;fontSource=https%3A%2F%2Ffonts.googleapis.com%2Fcss%3Ffamily%3DArchitects%2BDaughter;strokeColor=#000000;aspect=fixed;" vertex="1" parent="mZdrg3EECxi1FjpRIrMy-54">
          <mxGeometry x="234.25" y="285" width="59" height="10" as="geometry" />
        </mxCell>
        <mxCell id="mZdrg3EECxi1FjpRIrMy-35" value="" style="line;strokeWidth=2;direction=south;html=1;hachureGap=4;fontFamily=Architects Daughter;fontSource=https://fonts.googleapis.com/css?family=Architects+Daughter;strokeColor=#000000;aspect=fixed;" vertex="1" parent="mZdrg3EECxi1FjpRIrMy-54">
          <mxGeometry x="196.25" y="40" width="10" height="20" as="geometry" />
        </mxCell>
        <mxCell id="mZdrg3EECxi1FjpRIrMy-36" value="" style="line;strokeWidth=2;direction=south;html=1;hachureGap=4;fontFamily=Architects Daughter;fontSource=https://fonts.googleapis.com/css?family=Architects+Daughter;strokeColor=#000000;aspect=fixed;" vertex="1" parent="mZdrg3EECxi1FjpRIrMy-54">
          <mxGeometry x="66" y="184" width="10" height="50" as="geometry" />
        </mxCell>
        <mxCell id="mZdrg3EECxi1FjpRIrMy-37" value="" style="line;strokeWidth=2;direction=south;html=1;hachureGap=4;fontFamily=Architects Daughter;fontSource=https://fonts.googleapis.com/css?family=Architects+Daughter;strokeColor=#000000;aspect=fixed;" vertex="1" parent="mZdrg3EECxi1FjpRIrMy-54">
          <mxGeometry x="231.25" y="370" width="10" height="40" as="geometry" />
        </mxCell>
        <mxCell id="mZdrg3EECxi1FjpRIrMy-38" value="" style="line;strokeWidth=2;direction=south;html=1;hachureGap=4;fontFamily=Architects Daughter;fontSource=https://fonts.googleapis.com/css?family=Architects+Daughter;strokeColor=#000000;aspect=fixed;" vertex="1" parent="mZdrg3EECxi1FjpRIrMy-54">
          <mxGeometry x="341.25" y="185" width="10" height="55" as="geometry" />
        </mxCell>
        <mxCell id="mZdrg3EECxi1FjpRIrMy-39" value="" style="line;strokeWidth=2;direction=south;html=1;hachureGap=4;fontFamily=Architects Daughter;fontSource=https://fonts.googleapis.com/css?family=Architects+Daughter;strokeColor=#000000;aspect=fixed;" vertex="1" parent="mZdrg3EECxi1FjpRIrMy-54">
          <mxGeometry x="451.25" y="370" width="10" height="40" as="geometry" />
        </mxCell>
        <mxCell id="mZdrg3EECxi1FjpRIrMy-40" value="" style="line;strokeWidth=2;html=1;perimeter=backbonePerimeter;points=[];outlineConnect=0;hachureGap=4;fontFamily=Architects Daughter;fontSource=https://fonts.googleapis.com/css?family=Architects+Daughter;strokeColor=#000000;aspect=fixed;" vertex="1" parent="mZdrg3EECxi1FjpRIrMy-54">
          <mxGeometry x="398.25" y="285" width="60" height="10" as="geometry" />
        </mxCell>
        <mxCell id="mZdrg3EECxi1FjpRIrMy-43" value="" style="line;strokeWidth=2;html=1;perimeter=backbonePerimeter;points=[];outlineConnect=0;hachureGap=4;fontFamily=Architects Daughter;fontSource=https://fonts.googleapis.com/css?family=Architects+Daughter;strokeColor=#000000;aspect=fixed;" vertex="1" parent="mZdrg3EECxi1FjpRIrMy-54">
          <mxGeometry x="71.25" y="180" width="68.75" height="10" as="geometry" />
        </mxCell>
        <mxCell id="mZdrg3EECxi1FjpRIrMy-44" value="" style="line;strokeWidth=2;html=1;perimeter=backbonePerimeter;points=[];outlineConnect=0;hachureGap=4;fontFamily=Architects Daughter;fontSource=https://fonts.googleapis.com/css?family=Architects+Daughter;strokeColor=#000000;aspect=fixed;" vertex="1" parent="mZdrg3EECxi1FjpRIrMy-54">
          <mxGeometry x="259.25" y="180" width="88" height="10" as="geometry" />
        </mxCell>
        <mxCell id="mZdrg3EECxi1FjpRIrMy-46" value="" style="line;strokeWidth=2;html=1;perimeter=backbonePerimeter;points=[];outlineConnect=0;hachureGap=4;fontFamily=Architects Daughter;fontSource=https://fonts.googleapis.com/css?family=Architects+Daughter;strokeColor=#000000;aspect=fixed;" vertex="1" parent="mZdrg3EECxi1FjpRIrMy-54">
          <mxGeometry x="70.25" y="466" width="271" height="10" as="geometry" />
        </mxCell>
        <mxCell id="mZdrg3EECxi1FjpRIrMy-47" value="" style="line;strokeWidth=2;html=1;perimeter=backbonePerimeter;points=[];outlineConnect=0;hachureGap=4;fontFamily=Architects Daughter;fontSource=https://fonts.googleapis.com/css?family=Architects+Daughter;strokeColor=#000000;aspect=fixed;" vertex="1" parent="mZdrg3EECxi1FjpRIrMy-54">
          <mxGeometry x="231.25" y="405" width="226" height="10" as="geometry" />
        </mxCell>
        <mxCell id="mZdrg3EECxi1FjpRIrMy-48" value="" style="line;strokeWidth=2;direction=south;html=1;hachureGap=4;fontFamily=Architects Daughter;fontSource=https://fonts.googleapis.com/css?family=Architects+Daughter;strokeColor=#000000;aspect=fixed;" vertex="1" parent="mZdrg3EECxi1FjpRIrMy-54">
          <mxGeometry x="451.25" y="290" width="10" height="40" as="geometry" />
        </mxCell>
        <mxCell id="mZdrg3EECxi1FjpRIrMy-49" value="" style="line;strokeWidth=2;direction=south;html=1;hachureGap=4;fontFamily=Architects Daughter;fontSource=https://fonts.googleapis.com/css?family=Architects+Daughter;strokeColor=#000000;aspect=fixed;" vertex="1" parent="mZdrg3EECxi1FjpRIrMy-54">
          <mxGeometry x="337.25" y="410" width="10" height="60" as="geometry" />
        </mxCell>
        <mxCell id="mZdrg3EECxi1FjpRIrMy-50" value="" style="line;strokeWidth=2;direction=south;html=1;hachureGap=4;fontFamily=Architects Daughter;fontSource=https://fonts.googleapis.com/css?family=Architects+Daughter;strokeColor=#000000;aspect=fixed;" vertex="1" parent="mZdrg3EECxi1FjpRIrMy-54">
          <mxGeometry x="231.25" y="290" width="10" height="40" as="geometry" />
        </mxCell>
        <mxCell id="mZdrg3EECxi1FjpRIrMy-51" value="" style="line;strokeWidth=2;direction=south;html=1;hachureGap=4;fontFamily=Architects Daughter;fontSource=https://fonts.googleapis.com/css?family=Architects+Daughter;strokeColor=#000000;aspect=fixed;" vertex="1" parent="mZdrg3EECxi1FjpRIrMy-54">
          <mxGeometry x="65" y="276" width="10" height="194" as="geometry" />
        </mxCell>
        <mxCell id="mZdrg3EECxi1FjpRIrMy-52" value="" style="line;strokeWidth=2;direction=south;html=1;hachureGap=4;fontFamily=Architects Daughter;fontSource=https://fonts.googleapis.com/css?family=Architects+Daughter;strokeColor=#000000;aspect=fixed;" vertex="1" parent="mZdrg3EECxi1FjpRIrMy-54">
          <mxGeometry x="196.25" y="470" width="10" height="30" as="geometry" />
        </mxCell>
      </root>
    </mxGraphModel>
  </diagram>
</mxfile>
